<svg xmlns="http://www.w3.org/2000/svg" xmlns:xlink="http://www.w3.org/1999/xlink" viewBox="0 0 900 528.37"><defs><style>.cls-1{fill:none;}.cls-2{clip-path:url(#clip-path);}.cls-3{fill:#f5ea61;}</style><clipPath id="clip-path" transform="translate(-42.01 -277.81)"><rect class="cls-1" width="1000" height="1000"/></clipPath></defs><title>Asset 1</title><g id="Layer_2" data-name="Layer 2"><g id="Layer_1-2" data-name="Layer 1"><g class="cls-2"><path class="cls-3" d="M942,289.58c-.05-4.08-.28-7.63-2.62-9.79s-5.71-2.12-9.9-1.85c-3,.19-5.92.42-8.89.66-6,.48-12.25,1-18.33,1-10.67.12-21.34.08-32,0-14.11-.05-28.7-.11-43.06.19-22.61.49-45.22,1.14-67.83,1.8-25.19.72-51.24,1.48-76.85,2-9.12.17-18.45-.35-27.48-.87-6.51-.37-13.25-.75-19.9-.87-27.91-.5-56.28-.8-83.72-1.08l-17.71-.19c-8.37-.09-16.75-.06-25.12,0-17.37.05-35.32.1-52.87-.93-24.33-1.44-50.15-.79-83.75,2.08-4.3.37-8.6.77-12.9,1.17-21.12,2-43,4-64.44,1.68a6.12,6.12,0,0,0-2.86.53c-.32.12-.72.26-1.21.41l-2.11.64L282.7,467.92q-25.08,23.18-49.43,47.31c-7.57,7.52-11.25,15.85-11.94,27q-1.28,20.55-2.62,41.1-1.74,26.88-3.39,53.76c-.29,4.8-.21,9.5-.14,14.48,0,2.25.08,4.53.08,6.85v2.67l2.64.36c1,.14,1.89.29,2.71.43a28.77,28.77,0,0,0,4.74.53l17.62.07c10.24,0,20.68.09,31.14.09,8.4,0,16.81,0,25.17-.11q33.87-.33,67.74-.85c35.26-.49,71.71-1,107.56-1.13,31.33-.12,63.18.43,94,1l27.42.46c4.24,0,8.82-.44,13.53-4.48l12.83-11c21.76-18.72,44.26-38.09,66.91-56.46q14-11.36,29.11-23.26l7.26-.29c13.33-.53,25.92-1,38.58-2.07,39.3-3.25,78.18-1.65,114.63.28,16.56.87,32.85.26,50.1-.38l10.91-.4v-9.07c0-4,0-7.81,0-11.57q-.17-21.19-.43-42.37c-.7-61.58-1.41-125.26,2.1-187.8.4-7.17.55-14.84.45-23.45m-601.77,49,.09-.56,3.66,0c4.47,0,8.8.06,13.13-.05,18.32-.47,37.82-1,57-1.66,8.57-.3,17.13-.68,25.7-1.06l1.11-.05-5.16,4.47c-6.39,5.58-13,11.35-19.81,16.51q-41.66,31.59-82.05,66.26,1.58-21.49,3.12-43l2.62-36.21c.1-1.47.33-2.93.6-4.67M875.68,439.11v81.34c-16.24,1.31-33,.94-48.94.43-16.09-.51-32.44-.28-48.25,0h-.61c37.65-28.51,69.68-55.3,97.8-81.73M390.61,393C407.34,379.89,424,366.12,440,352.81l8-6.6a51,51,0,0,0,6.51-6.91c.88-1.06,1.77-2.13,2.71-3.18l1.52-1.69c7.24-.29,14.5-.54,21.71-.69,24.2-.53,52.76-1,81.11-.66,8.16.11,16.5.77,24.56,1.42,8.85.7,18,1.43,27.07,1.44,30.94.08,62.24-.42,92.58-.87q15-.22,30-.43c14.72-.2,28-.4,41.27-.92q24.87-1,49.73-2.1l23.69-1L834,343.55C813.07,360,791.4,377.09,770.2,394c-11.61,9.27-23.33,18.4-35.05,27.54C695.26,452.64,654,484.79,617.92,521.9c-3,3.1-6.52,4.39-12.08,4.43l-8.19.06c-13,.11-26,.21-39,.21h-.32q-19.72,0-39.47-.09c-25.15-.08-51.16-.16-76.75,0-10.62.09-21.38.57-31.79,1-11.72.52-23.83,1.06-35.74,1-32.63-.05-65.81-.55-97.9-1l-34.1-.5a13.57,13.57,0,0,1-1.65-.11,6.25,6.25,0,0,1,.44-.45c54-53.77,101.48-96.2,149.26-133.55M605,540.45l-9.38,106.4L228.1,649.92l6.18-109.47Zm7.54,71.61c1.78-21.24,3.62-43.21,5.24-64.83a18.42,18.42,0,0,1,6.16-12.68c26.38-25.21,54.75-51.85,85.9-76.17,40.19-31.36,80.77-63.6,120-94.78q19.53-15.53,39.08-31a13.61,13.61,0,0,0,2.42-2.68c1.25.08,2.52.19,3.85.34l.53,0v91.3a16.27,16.27,0,0,0-5,3.7l-1.54,1.45C836.62,458,798.69,489.22,750.4,524.36c-.3.21-.61.43-.91.66-2.79,2-5.6,4.06-8.46,6.12-30.8,22.13-59.58,47.54-87.41,72.11q-9.89,8.73-19.81,17.43c-6,5.24-12.13,10.27-18.62,15.6l-5.07,4.16q1.17-14.19,2.37-28.38M927.66,349.77c-.93,27.85-1.89,56.66-2.22,85-.27,23.54.15,47.45.55,70.58.22,12.07.43,24.14.55,36.21a69.7,69.7,0,0,1-.6,8c-.09.74-.17,1.51-.26,2.31l-15.07-.4c-12.68-.32-24.65-.63-36.77-1.15-45.47-2-91.5-.45-136.43,1.45q10.74-8.34,22.13-17l2-.1c2.42-.12,4.84-.29,7.27-.47,4.82-.34,9.82-.68,14.66-.63,12.37.13,24.74.39,37.11.66,10.48.22,20.95.44,31.43.59,4.38,0,8.78-.11,13-.27,3.41-.13,6.83-.26,10.24-.27,4.78,0,9.62-.48,12.6-3.65s3.11-7.88,2.84-12.54c-.21-3.56-.45-7.12-.7-10.68-.58-8.55-1.19-17.39-1.23-26-.17-46.3-.08-93.39,0-138.93l0-12.16c0-10.94-2-13.14-12.78-13.8a71,71,0,0,0-7.73,0c-5.19.25-10.37.53-15.56.81-9.4.51-19.13,1-28.68,1.36l-4.07.13c-26.33.87-53.57,1.77-80.34,2.16l-2.48,0c-43.15.63-87.75,1.28-131.61,1-9.89-.06-20-1-29.79-1.84-9.54-.84-19.4-1.72-29.17-1.84-19.32-.23-39,.67-57.94,1.54l-10.84.49c-6.08.27-12.23.84-18.17,1.38-9.55.88-19.42,1.8-29,1.44-23.52-.87-47.27.27-70.23,1.37-6.22.3-12.43.6-18.65.85-11.31.48-14.23,3.37-14.88,14.73-1.19,20.63-2.56,41.16-4.08,61-.73,9.6-1.66,19-2.65,29-.14,1.46-.29,3-.43,4.43q-12.09,10.57-24,21.38,2.34-69.26,4.52-138.52l.33-10.55c.09-2.55.07-5.1,0-7.78v-.81h3.75c4.46,0,8.47,0,12.49,0,2.44,0,4.87,0,7.32,0,6.29,0,12.81,0,19.24-.44,9.22-.63,18.44-1.4,27.65-2.17,14.72-1.23,29.93-2.51,44.89-3.15,9.32-.4,18.9.09,28.16.57,5.92.31,12,.62,18.07.71,21.21.3,42.42.45,63.63.6l87.16.7c8.51,0,17,.08,25.53.28,4.65.11,9.29.36,13.94.6,6.87.36,14,.74,21,.65,39.41-.48,79.47-1.24,118.22-2l12.79-.24c4.72-.09,9.48-.37,14.08-.63,2.72-.16,5.44-.32,8.15-.44l3.47-.16c4.71-.22,9.57-.44,14.32-.46,15.14-.07,30.28-.06,45.42-.06h39c0,1.2,0,2.38,0,3.55,0,4.44.06,8.65-.06,12.86-.38,13.57-.84,27.14-1.29,40.71" transform="translate(-42.01 -277.81)"/><path class="cls-3" d="M364.42,558.93l-26.1,36.42-2.74,38.49a5.69,5.69,0,0,1-5.67,5.29,2.82,2.82,0,0,1-.41,0,5.69,5.69,0,0,1-5.28-6.08L327,594.38l-17.2-37.84a5.69,5.69,0,0,1,10.37-4.71L333.86,582l21.31-29.73a5.69,5.69,0,1,1,9.25,6.64" transform="translate(-42.01 -277.81)"/><path class="cls-3" d="M416.08,615.48c-.43,5.14-.89,10.64-1.35,16.5a5.7,5.7,0,0,1-11.36-.89q.7-8.83,1.36-16.57c.37-4.33.72-8.48,1-12.41-8.19,0-19.33-.26-25.17-.38-5.37,17.06-9.15,32.85-9.18,33a5.7,5.7,0,0,1-5.54,4.38,5.42,5.42,0,0,1-1.32-.16,5.68,5.68,0,0,1-4.22-6.85c.19-.8,4.69-19.68,11.07-39,12.3-37.29,20.47-42.74,26.84-43.16,5.88-.39,10.56,1.15,13.91,4.56,8.35,8.51,6.87,26,3.93,61m-9.51-24.76c.89-14.8.63-25-2.55-28.25-.37-.38-1.37-1.38-4.85-1.19-.72.37-5.89,3.79-14.82,29.13,6.34.13,15.46.29,22.22.31" transform="translate(-42.01 -277.81)"/><path class="cls-3" d="M488.79,558.93l-26.11,36.42L460,633.84a5.7,5.7,0,0,1-5.68,5.29,2.82,2.82,0,0,1-.41,0,5.69,5.69,0,0,1-5.28-6.08l2.75-38.65-17.2-37.84a5.69,5.69,0,0,1,10.37-4.71L458.22,582l21.31-29.73a5.7,5.7,0,1,1,9.26,6.64" transform="translate(-42.01 -277.81)"/><path class="cls-3" d="M492.42,632.88a6.25,6.25,0,1,1,6.25,6.25,6.25,6.25,0,0,1-6.25-6.25M518,557.16l-10.44,54.57a5.7,5.7,0,0,1-5.59,4.62,5.61,5.61,0,0,1-1.07-.1,5.7,5.7,0,0,1-4.53-6.66L506.84,555A5.7,5.7,0,1,1,518,557.16" transform="translate(-42.01 -277.81)"/><path class="cls-3" d="M247.58,403l-31-15.84c-20.36-10.42-41.4-21.18-57.7-37.26a6.11,6.11,0,0,0-8.59,8.7C168,376,189.87,387.18,211.05,398l31,15.85A6.12,6.12,0,1,0,247.58,403" transform="translate(-42.01 -277.81)"/><path class="cls-3" d="M180.07,544.66a6.11,6.11,0,0,0-6.11-6.12H48.12a6.12,6.12,0,0,0,0,12.23H174a6.11,6.11,0,0,0,6.11-6.11" transform="translate(-42.01 -277.81)"/><path class="cls-3" d="M182.27,672.22c-7.08,3.56-12,9.48-16.45,15.24a350,350,0,0,0-48,84.19,6.12,6.12,0,0,0,3.41,7.94,6.09,6.09,0,0,0,7.94-3.41,337.72,337.72,0,0,1,46.33-81.25c3.58-4.65,7.47-9.38,12.26-11.79a6.11,6.11,0,1,0-5.49-10.92" transform="translate(-42.01 -277.81)"/><path class="cls-3" d="M368.78,690.48a6.11,6.11,0,0,0-6.11,6.12V800.07a6.11,6.11,0,0,0,12.22,0V696.6a6.11,6.11,0,0,0-6.11-6.12" transform="translate(-42.01 -277.81)"/><path class="cls-3" d="M620.57,694.28a6.11,6.11,0,0,0-12.19,1c.86,10.66,5.08,20.45,9.7,30.37,12.42,26.64,26.11,53.12,39.41,78.84l10.8-5.72c-13.18-25.5-26.82-51.88-39.12-78.28-4.3-9.21-7.91-17.54-8.6-26.19" transform="translate(-42.01 -277.81)"/><path class="cls-3" d="M850.16,621.83l-111.8-7.48a6.11,6.11,0,0,0-.81,12.2L849.34,634h.42a6.11,6.11,0,0,0,.4-12.21" transform="translate(-42.01 -277.81)"/></g></g></g></svg>