<svg id="Group_3" data-name="Group 3" xmlns="http://www.w3.org/2000/svg" width="116.035" height="41.275" viewBox="0 0 116.035 41.275">
  <path id="Path_1" data-name="Path 1" d="M327.126,191.361a2.809,2.809,0,0,1-2.983,2.972h-3.362v-9.127h3.061a2.232,2.232,0,0,1,2.435,2.256,2.05,2.05,0,0,1-.491,1.374A2.682,2.682,0,0,1,327.126,191.361Zm-4.491-4.413v1.386h1.073a.693.693,0,0,0,0-1.386Zm2.6,4.29a1.228,1.228,0,0,0-1.285-1.341h-1.318v2.681h1.318A1.234,1.234,0,0,0,325.238,191.239Z" transform="translate(-295.635 -184.871)" fill="#ff5897"/>
  <path id="Path_2" data-name="Path 2" d="M347.889,192.968h-3.7l-.38.883h-2.033l4.257-9.462,4.267,9.462h-2.033Zm-.715-1.653-1.139-2.626-1.129,2.626Z" transform="translate(-308.037 -184.388)" fill="#ff5897"/>
  <path id="Path_3" data-name="Path 3" d="M374.684,194.333l-3.038-4.39v4.39h-1.854v-9.127h1.854v3.809l2.714-3.809h2.268l-3.095,4.29,3.385,4.838Z" transform="translate(-324.584 -184.871)" fill="#ff5897"/>
  <path id="Path_4" data-name="Path 4" d="M396.383,186.949v1.866h2.19v1.743h-2.19v2.033h2.524v1.743h-4.379v-9.127h4.379v1.743Z" transform="translate(-339.195 -184.871)" fill="#ff5897"/>
  <path id="Path_5" data-name="Path 5" d="M420.565,189.764a4.372,4.372,0,0,1-4.581,4.569h-2.48v-9.127h2.48A4.351,4.351,0,0,1,420.565,189.764Zm-5.206-2.815v5.642h.659a2.826,2.826,0,0,0,0-5.642Z" transform="translate(-350.403 -184.871)" fill="#ff5897"/>
  <path id="Path_6" data-name="Path 6" d="M449.31,191.361a2.809,2.809,0,0,1-2.983,2.972h-3.363v-9.127h3.061a2.232,2.232,0,0,1,2.435,2.256,2.05,2.05,0,0,1-.491,1.374A2.682,2.682,0,0,1,449.31,191.361Zm-4.491-4.413v1.386h1.073a.693.693,0,0,0,0-1.386Zm2.6,4.29a1.228,1.228,0,0,0-1.285-1.341h-1.319v2.681h1.319A1.234,1.234,0,0,0,447.422,191.239Z" transform="translate(-367.804 -184.871)" fill="#ff5897"/>
  <path id="Path_7" data-name="Path 7" d="M465.727,191.25v3.083h-1.854V191.25l-2.737-6.044h2.033l1.631,3.776,1.631-3.776h2.034Z" transform="translate(-378.536 -184.871)" fill="#ff5897"/>
  <g id="Group_2" data-name="Group 2" transform="translate(0 15.968)">
    <path id="Path_8" data-name="Path 8" d="M275.151,229.214l-4.488,1.86c-.443-1.89-1.27-2.952-2.6-2.952a1.729,1.729,0,0,0-1.86,1.772c0,1.506,1.536,2.008,3.692,3.071,3.543,1.743,6.319,3.662,6.319,7.737,0,4.843-3.957,8-8.622,8-4.725,0-8.239-3.219-8.239-8.83h4.932c-.03,2.569,1.328,4.134,3.543,4.134a3.092,3.092,0,0,0,3.4-3.129c0-1.978-1.418-2.6-3.868-3.809-3.1-1.536-6.142-3.13-6.142-7.206,0-4.134,3.16-6.466,7.058-6.466C272.375,223.4,274.5,225.965,275.151,229.214Z" transform="translate(-259.352 -223.397)" fill="#ff5897"/>
    <path id="Path_9" data-name="Path 9" d="M336.107,229.446H330.5v19.519h-4.9V229.446h-5.611v-4.608h16.123Z" transform="translate(-295.164 -224.248)" fill="#ff5897"/>
    <path id="Path_10" data-name="Path 10" d="M387.644,229.446v4.931h5.788v4.607h-5.788v5.374h6.674v4.606H382.742V224.838h11.576v4.608Z" transform="translate(-332.233 -224.248)" fill="#ff5897"/>
    <path id="Path_11" data-name="Path 11" d="M451.7,234.317a9.17,9.17,0,0,1-9.6,9.568h-1.152v5.079h-4.9V224.838H442.1C447.744,224.838,451.7,228.648,451.7,234.317Zm-4.991.03c0-2.687-1.447-4.9-4.636-4.9h-1.122v9.833h1.093C445.234,239.278,446.71,237.034,446.71,234.347Z" transform="translate(-363.719 -224.248)" fill="#ff5897"/>
    <path id="Path_12" data-name="Path 12" d="M515.206,224.838v24.126h-4.9v-9.981h-9.332v9.981h-4.9V224.838h4.9v9.538H510.3v-9.538Z" transform="translate(-399.171 -224.248)" fill="#ff5897"/>
  </g>
</svg>
